<?xml version="1.0" encoding="UTF-8" standalone="no"?>
<!DOCTYPE svg PUBLIC "-//W3C//DTD SVG 1.1//EN" "http://www.w3.org/Graphics/SVG/1.1/DTD/svg11.dtd">
<svg width="100%" height="100%" viewBox="0 0 2048 2048" version="1.1" xmlns="http://www.w3.org/2000/svg" xmlns:xlink="http://www.w3.org/1999/xlink" xml:space="preserve" xmlns:serif="http://www.serif.com/" style="fill-rule:evenodd;clip-rule:evenodd;stroke-linecap:round;stroke-linejoin:round;stroke-miterlimit:1.5;">
    <path d="M1176.91,234.5C1573.79,228.79 1674.64,468.897 1682.57,591.575C1695.55,792.351 1583.15,931.386 1583.15,931.386L1550.31,1595.67L1257.88,1759.92L1350.53,1529.21L1354.75,930.875C1354.75,930.875 1485,867.089 1483.34,612.75C1481.95,398.441 1332.34,344.489 1178.22,341.333C1027.71,338.252 840.408,494.517 830.344,713.375C827.684,771.22 850.613,874.703 896.813,873.875C962.717,872.693 958.24,805.514 1000.79,804.422C1060.6,802.886 1095.73,809.504 1095.73,809.504C1095.73,809.504 1096.86,1088.28 1097.05,1238.41C1097.24,1385.99 986.119,1553.71 875.688,1654.25C576.562,1926.57 285.214,1689.28 285.214,1689.28C285.214,1689.28 525.207,1717.46 694.132,1536.5C792.884,1430.71 872.125,1146.12 872.125,1146.12C872.125,1146.12 516.271,1048.16 513.894,797.566C511.773,573.912 795.218,239.992 1176.91,234.5Z" style="stroke:black;stroke-width:1px;"/>
</svg>
