<?xml version="1.0" encoding="UTF-8" standalone="no"?>
<!DOCTYPE svg PUBLIC "-//W3C//DTD SVG 1.1//EN" "http://www.w3.org/Graphics/SVG/1.1/DTD/svg11.dtd">
<svg width="100%" height="100%" viewBox="0 0 2048 2048" version="1.1" xmlns="http://www.w3.org/2000/svg" xmlns:xlink="http://www.w3.org/1999/xlink" xml:space="preserve" xmlns:serif="http://www.serif.com/" style="fill-rule:evenodd;clip-rule:evenodd;stroke-linecap:round;stroke-linejoin:round;stroke-miterlimit:1.5;">
    <path d="M1448.13,536.887C1531.43,536.885 1713.76,611.102 1714.19,723.458C1714.62,837.789 1342.03,1137.17 1190.28,1231.35C1069.5,1306.3 951.112,1334.52 868.792,1388.49C812.958,1425.1 735.406,1531.83 735.406,1531.83C735.406,1531.83 687.096,1487.52 686.654,1464.36C684.298,1340.84 680.544,797.929 680.544,797.929L522.938,803.708C522.938,803.708 739.277,570.917 805.313,569.75C841.286,569.115 908.851,635.411 905.172,712.845C903.194,754.474 863.902,794.312 863.242,806.102C857.985,899.907 835.219,1342.17 835.219,1342.17C835.219,1342.17 1050.54,1235.34 1143.75,1160.92C1242.32,1082.22 1423.92,945.367 1426.62,870C1434.73,644.565 1200.81,681.917 1200.81,681.917C1200.81,681.917 1362.29,536.889 1448.13,536.887Z" style="stroke:black;stroke-width:1px;"/>
</svg>
