<?xml version="1.0" encoding="UTF-8" standalone="no"?>
<!DOCTYPE svg PUBLIC "-//W3C//DTD SVG 1.1//EN" "http://www.w3.org/Graphics/SVG/1.1/DTD/svg11.dtd">
<svg width="100%" height="100%" viewBox="0 0 2048 2048" version="1.1" xmlns="http://www.w3.org/2000/svg" xmlns:xlink="http://www.w3.org/1999/xlink" xml:space="preserve" xmlns:serif="http://www.serif.com/" style="fill-rule:evenodd;clip-rule:evenodd;stroke-linecap:round;stroke-linejoin:round;stroke-miterlimit:1.5;">
    <path d="M1176.28,722.292C1358.98,723.843 1449.13,1038.14 1489.58,1185.25C1570.1,1478.05 1801.81,1538.17 1801.81,1538.17C1801.81,1538.17 1660.35,1677.92 1573.72,1680C1456.4,1682.82 1292.46,1375.94 1245.03,1229.79C1203.41,1101.57 1135.93,866.35 1063.28,868.5C972.254,871.194 915.653,966.406 915.653,966.406C915.653,966.406 842.946,863.446 859.445,837.489C894.025,783.087 1040.22,721.137 1176.28,722.292Z" style="stroke:black;stroke-width:1px;"/>
    <path d="M712.656,686.667C899.196,685.598 958.497,915.172 1014.32,1147.55C1087.24,1451.14 1343.88,1586.71 1343.88,1586.71C1343.88,1586.71 1221.48,1686.15 1151.06,1683.42C999.44,1677.53 813.458,1296.16 799.988,1252.32C754.988,1105.84 767.488,915.088 671.953,916.301C637.597,916.737 580.435,1028.35 580.656,1190.58C580.801,1296.7 554.224,1547.99 719.625,1551.21C759.777,1551.99 867.327,1525.54 867.327,1525.54C867.327,1525.54 791.203,1719.54 684.605,1720.71C602.539,1721.61 409.144,1554.03 411.092,1403.76C415.333,1076.6 473.983,688.034 712.656,686.667Z" style="stroke:black;stroke-width:1px;"/>
</svg>
