<?xml version="1.0" encoding="UTF-8" standalone="no"?>
<!DOCTYPE svg PUBLIC "-//W3C//DTD SVG 1.1//EN" "http://www.w3.org/Graphics/SVG/1.1/DTD/svg11.dtd">
<svg width="100%" height="100%" viewBox="0 0 2048 2048" version="1.1" xmlns="http://www.w3.org/2000/svg" xmlns:xlink="http://www.w3.org/1999/xlink" xml:space="preserve" xmlns:serif="http://www.serif.com/" style="fill-rule:evenodd;clip-rule:evenodd;stroke-linecap:round;stroke-linejoin:round;stroke-miterlimit:1.5;">
    <path d="M1432.54,448.851C1502.97,447.776 1611.13,521.202 1610.97,598.917C1610.56,791.358 1278.59,962.326 1156.22,1080.39C1068.34,1165.18 984.636,1251.12 940.326,1318.07C914.514,1357.07 891.346,1454.34 853.971,1487.98C810.706,1526.93 656.193,1578.63 653.29,1550.01C644.307,1461.43 794.353,1371.62 803.965,1279.59C820.02,1125.87 845.638,770.564 853.459,653.499C855.314,625.735 758.748,645.529 771.677,620.515C795.596,574.243 948.911,450.587 1000.38,448.958C1069.1,446.783 1076.12,517.631 1070.31,608.036C1057.91,800.894 1002.87,1120.93 1002.87,1120.93C1002.87,1120.93 1337.46,827.796 1341.44,709.292C1343.18,657.421 1327.8,602.793 1299.24,601.375C1271.21,599.983 1183.31,658.784 1183.79,625.027C1185.21,526.84 1361.75,449.931 1432.54,448.851Z" style="stroke:black;stroke-width:1px;"/>
</svg>
