<?xml version="1.0" encoding="UTF-8" standalone="no"?>
<!DOCTYPE svg PUBLIC "-//W3C//DTD SVG 1.1//EN" "http://www.w3.org/Graphics/SVG/1.1/DTD/svg11.dtd">
<svg width="100%" height="100%" viewBox="0 0 2048 2048" version="1.1" xmlns="http://www.w3.org/2000/svg" xmlns:xlink="http://www.w3.org/1999/xlink" xml:space="preserve" xmlns:serif="http://www.serif.com/" style="fill-rule:evenodd;clip-rule:evenodd;stroke-linecap:round;stroke-linejoin:round;stroke-miterlimit:1.5;">
    <path d="M1118.41,347.208C1278.6,343.642 1499.85,446.523 1552.19,509.662C1604.24,572.448 1506.78,711.252 1426.54,714.19C1334.88,717.546 1292.38,488.394 1037.78,490.958C947.931,491.863 828.958,573.873 830.844,663.708C833.669,798.283 835.257,1305.87 835.257,1305.87L606.133,1466.91C606.133,1466.91 607.482,889.591 610.159,702.673C613.098,497.473 951.468,350.925 1118.41,347.208Z" style="stroke:black;stroke-width:1px;"/>
    <path d="M1217.06,812.042C1352.31,815.388 1575.58,927.028 1578.44,1075.79C1584.81,1406.82 1077.44,1477.29 1077.44,1477.29C1077.44,1477.29 1355.63,1270.15 1352.16,1133.75C1349.87,1043.84 1207.25,947.162 1113.18,944.287C1019.11,941.412 787.75,1116.5 787.75,1116.5L767.281,1004.46C767.281,1004.46 1081.39,808.685 1217.06,812.042Z" style="stroke:black;stroke-width:1px;"/>
</svg>
