<?xml version="1.0" encoding="UTF-8" standalone="no"?>
<!DOCTYPE svg PUBLIC "-//W3C//DTD SVG 1.1//EN" "http://www.w3.org/Graphics/SVG/1.1/DTD/svg11.dtd">
<svg width="100%" height="100%" viewBox="0 0 2048 2048" version="1.1" xmlns="http://www.w3.org/2000/svg" xmlns:xlink="http://www.w3.org/1999/xlink" xml:space="preserve" xmlns:serif="http://www.serif.com/" style="fill-rule:evenodd;clip-rule:evenodd;stroke-linecap:round;stroke-linejoin:round;stroke-miterlimit:1.5;">
    <g transform="matrix(1,0,0,1,-6.41966,-147.199)">
        <path d="M694.427,674.403C748.511,674.981 878.061,723.262 916.748,769.577C940.368,797.854 910.192,842.87 910.192,842.87C910.192,842.87 762.985,734.067 688.805,733.274C610.18,732.434 447.844,791.333 447.844,791.333C447.844,791.333 615.802,673.562 694.427,674.403Z" style="stroke:black;stroke-width:1px;"/>
    </g>
    <g transform="matrix(1,0,0,1,-15.9612,149.038)">
        <path d="M694.427,674.403C748.511,674.981 878.061,723.262 916.748,769.577C940.368,797.854 910.192,842.87 910.192,842.87C910.192,842.87 762.985,734.067 688.805,733.274C610.18,732.434 447.844,791.333 447.844,791.333C447.844,791.333 615.802,673.562 694.427,674.403Z" style="stroke:black;stroke-width:1px;"/>
    </g>
    <g transform="matrix(1,0,0,1,51.686,4.57554)">
        <path d="M672.1,195.628C832.879,195.818 994.91,260.386 1001.87,450.286C1009.01,645.22 977.85,1354.82 977.85,1354.82L819.702,1430.09C819.702,1430.09 814.471,647.194 815.563,451.875C816.245,329.774 727.603,266.219 622.968,263.722C562.863,262.287 417.643,308.861 417.643,308.861C417.643,308.861 588.485,195.529 672.1,195.628Z" style="stroke:black;stroke-width:1px;"/>
    </g>
    <g transform="matrix(1,0,0,1,51.686,4.57554)">
        <path d="M1286.2,869.341C1434.78,870.32 1584.08,1054.02 1576.66,1152.79C1566.43,1288.91 1361.86,1471.77 1245.41,1475.33C1136.27,1478.67 942.188,1315.92 942.188,1315.92L949.056,1146.35C949.056,1146.35 1186.13,1371.88 1259.5,1371.62C1323.36,1371.4 1384.13,1382.74 1388.66,1216.75C1391.49,1113.3 1307.09,983.536 1202.26,982.129C1130.86,981.17 976.011,1109.84 976.011,1109.84L951.133,1034.74C951.133,1034.74 1112.74,868.197 1286.2,869.341Z" style="stroke:black;stroke-width:1px;"/>
    </g>
</svg>
