<?xml version="1.0" encoding="UTF-8" standalone="no"?>
<!DOCTYPE svg PUBLIC "-//W3C//DTD SVG 1.1//EN" "http://www.w3.org/Graphics/SVG/1.1/DTD/svg11.dtd">
<svg width="100%" height="100%" viewBox="0 0 2048 2048" version="1.1" xmlns="http://www.w3.org/2000/svg" xmlns:xlink="http://www.w3.org/1999/xlink" xml:space="preserve" xmlns:serif="http://www.serif.com/" style="fill-rule:evenodd;clip-rule:evenodd;stroke-linecap:round;stroke-linejoin:round;stroke-miterlimit:1.5;">
    <path d="M1532.12,299C1653.1,300.452 1774.83,403.618 1774,517.167C1771.38,874.13 1213.38,1093.43 1033.28,1225.42C949.263,1287 901.142,1374.05 792.314,1491.21C601.684,1696.42 441,1667.29 441,1667.29C441,1667.29 599.242,1421.11 632.5,1281.42C676.162,1098.03 699.84,560.828 699.84,560.828L586.277,560.782C586.277,560.782 699.075,302.978 870,296.375C932.194,293.973 965.043,424.901 963.768,513.018C962.672,588.743 903.448,734.973 898.018,830.963C889.369,983.85 887.092,1122.26 887.092,1122.26C887.092,1122.26 1034.39,1076.18 1174.77,960.442C1276.53,876.533 1481.5,699.581 1481.06,621.208C1480.58,536.286 1435.13,488.479 1383.02,488.768C1346.23,488.972 1283.54,560.038 1227.66,561.672C1170.68,563.339 1124.75,563.083 1124.75,563.083C1124.75,563.083 1342.81,296.728 1532.12,299Z" style="stroke:black;stroke-width:1px;"/>
</svg>
