<?xml version="1.0" encoding="UTF-8" standalone="no"?>
<!DOCTYPE svg PUBLIC "-//W3C//DTD SVG 1.1//EN" "http://www.w3.org/Graphics/SVG/1.1/DTD/svg11.dtd">
<svg width="100%" height="100%" viewBox="0 0 2048 2048" version="1.1" xmlns="http://www.w3.org/2000/svg" xmlns:xlink="http://www.w3.org/1999/xlink" xml:space="preserve" xmlns:serif="http://www.serif.com/" style="fill-rule:evenodd;clip-rule:evenodd;stroke-linecap:round;stroke-linejoin:round;stroke-miterlimit:1.5;">
    <path d="M1477.5,585.375C1553.53,583.769 1687.66,734.541 1685.72,836.292C1683.49,953.158 1358.58,1170.12 1154.61,1292.34C854.351,1472.24 749.063,1458.54 749.063,1458.54C749.063,1458.54 939.308,1365.09 1124.99,1245.04C1313.51,1123.16 1497.51,974.106 1496.84,898C1495.79,777.143 1250.97,806.977 1250.97,806.977C1250.97,806.977 1404.34,586.92 1477.5,585.375Z" style="stroke:black;stroke-width:1px;"/>
    <path d="M1113.19,586.375C1179.64,585.433 1310.35,708.36 1314.37,837.688C1321.25,1058.84 1081.95,1098.88 938.859,1197.67C795.283,1296.8 514.969,1454.5 514.969,1454.5L555.281,891.625L470.783,771.484C470.783,771.484 556.964,770.096 587.342,749.79C620.447,727.66 636.998,643.271 666.813,644.5C691.853,645.532 733.286,699.971 733.548,731.672C734.34,827.747 700.105,1243.83 700.105,1243.83C700.105,1243.83 857.365,1169.58 933.217,1117.02C1008.07,1065.15 1119.22,946.895 1120.19,894.417C1121.91,801.282 928.188,812.5 928.188,812.5C928.188,812.5 1048.69,587.289 1113.19,586.375Z" style="stroke:black;stroke-width:1px;"/>
</svg>
