<?xml version="1.0" encoding="UTF-8" standalone="no"?>
<!DOCTYPE svg PUBLIC "-//W3C//DTD SVG 1.1//EN" "http://www.w3.org/Graphics/SVG/1.1/DTD/svg11.dtd">
<svg width="100%" height="100%" viewBox="0 0 2048 2048" version="1.1" xmlns="http://www.w3.org/2000/svg" xmlns:xlink="http://www.w3.org/1999/xlink" xml:space="preserve" xmlns:serif="http://www.serif.com/" style="fill-rule:evenodd;clip-rule:evenodd;stroke-linecap:round;stroke-linejoin:round;stroke-miterlimit:1.5;">
    <path d="M986.167,348.262C986.167,348.262 986.176,590.23 985.053,741.711C984.078,873.248 871.725,1112.72 873.172,1220.11C874.54,1321.67 1051.37,1419.3 1175.52,1416.65C1298.79,1414.02 1599.56,1309.58 1599.56,1309.58C1599.56,1309.58 1345.8,1640.28 1094.19,1645.46C934.268,1648.75 649.583,1450.67 671.581,1270.38C686.866,1145.11 781.645,894.139 786.695,744.276C790.078,643.891 790.919,607.28 790.919,607.28L686.266,609.095L639.5,520.583L753.781,500.875L914.632,348.492L986.167,348.262Z" style="stroke:black;stroke-width:1px;"/>
    <path d="M1474.94,881.114C1527.13,880.787 1594.17,902.698 1595.94,941.991C1597.13,968.219 1489.71,1033.25 1449.28,1033.03C1328.86,1032.36 877.329,1030.92 877.329,1030.92L904.387,878.885C904.387,878.885 1356.11,881.857 1474.94,881.114Z" style="stroke:black;stroke-width:1px;"/>
</svg>
