<?xml version="1.0" encoding="UTF-8" standalone="no"?>
<!DOCTYPE svg PUBLIC "-//W3C//DTD SVG 1.1//EN" "http://www.w3.org/Graphics/SVG/1.1/DTD/svg11.dtd">
<svg width="100%" height="100%" viewBox="0 0 2048 2048" version="1.1" xmlns="http://www.w3.org/2000/svg" xmlns:xlink="http://www.w3.org/1999/xlink" xml:space="preserve" xmlns:serif="http://www.serif.com/" style="fill-rule:evenodd;clip-rule:evenodd;stroke-linecap:round;stroke-linejoin:round;stroke-miterlimit:1.5;">
    <path d="M1214.61,376.001L1814.8,374.006L1656.97,602.5L1138.22,603.958L1085.88,550.875L1214.61,376.001Z" style="stroke:black;stroke-width:1px;"/>
    <path d="M1378.53,560.188C1378.53,560.188 1670.04,852.624 1664.28,1038.67C1655.84,1311.8 1480.74,1563.81 1185.38,1559C981.836,1555.68 673.693,1176.62 673.693,1176.62L660.766,569.963C660.766,569.963 796.765,1236.17 1114.74,1233.03C1290.86,1231.29 1408.88,1050.93 1409.22,937.083C1409.75,761.644 1207.47,556.25 1207.47,556.25L1378.53,560.188Z" style="stroke:black;stroke-width:1px;"/>
    <path d="M750.531,372.25L750.688,1507.42L480.031,1675.42L479.385,763.036L408,641.875L287.033,640.439L288.219,567L362.648,566.176L588.497,368.95L750.531,372.25Z" style="stroke:black;stroke-width:1px;"/>
</svg>
