<?xml version="1.0" encoding="UTF-8" standalone="no"?>
<!DOCTYPE svg PUBLIC "-//W3C//DTD SVG 1.1//EN" "http://www.w3.org/Graphics/SVG/1.1/DTD/svg11.dtd">
<svg width="100%" height="100%" viewBox="0 0 2048 2048" version="1.1" xmlns="http://www.w3.org/2000/svg" xmlns:xlink="http://www.w3.org/1999/xlink" xml:space="preserve" xmlns:serif="http://www.serif.com/" style="fill-rule:evenodd;clip-rule:evenodd;stroke-linecap:round;stroke-linejoin:round;stroke-miterlimit:1.5;">
    <path d="M468.219,293.298L667.519,292.772L620.813,1682.92L385.902,1831.44C385.902,1831.44 383.676,1034.7 380.375,820.333C378.902,724.64 347.875,555.25 347.875,555.25L235.435,515.298L233.594,446.5L468.219,293.298Z" style="stroke:black;stroke-width:1px;"/>
    <path d="M1079.72,295.75L1757.09,299.667L1632.37,480.341L1320.68,482.233C1320.68,482.233 1646.85,851.108 1644.44,1060.46C1641.59,1307.5 1485.05,1628.74 1173.34,1627.42C818.715,1625.91 578.958,1213.31 578.958,1213.31L576.852,986.635C576.852,986.635 862.845,1351.05 1073.53,1352.25C1185.74,1352.89 1366.52,1256.55 1368.41,992.25C1371.29,588.984 971.781,510.5 971.781,510.5L1079.72,295.75Z" style="stroke:black;stroke-width:1px;"/>
</svg>
