<?xml version="1.0" encoding="UTF-8" standalone="no"?>
<!DOCTYPE svg PUBLIC "-//W3C//DTD SVG 1.1//EN" "http://www.w3.org/Graphics/SVG/1.1/DTD/svg11.dtd">
<svg width="100%" height="100%" viewBox="0 0 2048 2048" version="1.1" xmlns="http://www.w3.org/2000/svg" xmlns:xlink="http://www.w3.org/1999/xlink" xml:space="preserve" xmlns:serif="http://www.serif.com/" style="fill-rule:evenodd;clip-rule:evenodd;stroke-linecap:round;stroke-linejoin:round;stroke-miterlimit:1.5;">
    <path d="M1018.25,397.167C1051.08,395.634 1070.99,440.71 1096.29,440.412C1196.75,439.232 1611.28,437.803 1611.28,437.803L1613.02,558.404L1327.96,822.069C1327.96,822.069 1297.32,1129.96 1304.92,1195.08C1312.07,1256.27 1550.81,1169.88 1550.81,1169.88C1550.81,1169.88 1218.54,1435.42 1084.29,1459.02C927.405,1486.6 1085.13,1023.87 1085.13,1023.87C1085.13,1023.87 680.443,1428.85 597.719,1425.83C280.816,1414.27 587.546,982.932 787.571,862.633C911.34,788.196 1236.29,751.166 1236.29,751.166L1396.69,595.625L760.75,591.083C760.75,591.083 959.213,399.923 1018.25,397.167ZM858.391,917.71C975.981,886.426 1000.26,955.045 1000.26,955.045C1000.26,955.045 724.329,1274.2 657.887,1216.69C609.809,1175.07 799.998,933.245 858.391,917.71Z" style="stroke:black;stroke-width:1px;"/>
</svg>
