<?xml version="1.0" encoding="UTF-8" standalone="no"?>
<!DOCTYPE svg PUBLIC "-//W3C//DTD SVG 1.1//EN" "http://www.w3.org/Graphics/SVG/1.1/DTD/svg11.dtd">
<svg width="100%" height="100%" viewBox="0 0 2048 2048" version="1.1" xmlns="http://www.w3.org/2000/svg" xmlns:xlink="http://www.w3.org/1999/xlink" xml:space="preserve" xmlns:serif="http://www.serif.com/" style="fill-rule:evenodd;clip-rule:evenodd;stroke-linecap:round;stroke-linejoin:round;stroke-miterlimit:1.5;">
    <path d="M1500.09,188.125C1665.32,190.393 1857.59,426.952 1857.72,574.333C1857.82,685.77 1790.6,843.464 1699.22,836.125C1573.18,826.002 1591.64,688.816 1592.25,603.458C1593.08,487.918 1585.1,346.799 1478.16,343.917C1098.94,333.697 1570.9,1773.96 864.929,1790.98C644.19,1796.3 286.572,1706.68 283.97,1405.11C279.469,883.521 1199.37,183.996 1500.09,188.125ZM1137.33,496.539C1137.33,496.539 1176.97,1565.93 832.781,1573C697.851,1575.77 534.61,1488.35 530.594,1303.54C523.114,959.399 1137.33,496.539 1137.33,496.539Z" style="stroke:black;stroke-width:1px;"/>
</svg>
