<?xml version="1.0" encoding="UTF-8" standalone="no"?>
<!DOCTYPE svg PUBLIC "-//W3C//DTD SVG 1.1//EN" "http://www.w3.org/Graphics/SVG/1.1/DTD/svg11.dtd">
<svg width="100%" height="100%" viewBox="0 0 2048 2048" version="1.1" xmlns="http://www.w3.org/2000/svg" xmlns:xlink="http://www.w3.org/1999/xlink" xml:space="preserve" xmlns:serif="http://www.serif.com/" style="fill-rule:evenodd;clip-rule:evenodd;stroke-linecap:round;stroke-linejoin:round;stroke-miterlimit:1.5;">
    <path d="M1567.32,418.361C1709.63,423.03 1809.11,571.504 1808.09,713.732C1807.25,831.871 1689.77,1025.21 1545.5,1139.41C1200.37,1412.6 775.406,1731.29 775.406,1731.29C775.406,1731.29 1249.35,1234.13 1387.06,1085.1C1454.16,1012.49 1544.39,915.414 1541.04,795.407C1538.5,704.358 1479.29,661.448 1424.66,659.125C1369.22,656.768 1225.69,669.875 1225.69,669.875C1225.69,669.875 1395.54,412.725 1567.32,418.361Z" style="stroke:black;stroke-width:1px;"/>
    <path d="M1122.69,408.378C1248.43,408.131 1344.61,519.871 1345.17,616.851C1346.25,804.916 1265.16,967.967 1147.02,1067.81C951.52,1233.04 319.166,1744.56 319.166,1744.56L434.241,639.344L351.557,576.982C351.557,576.982 538.346,405.49 596.976,406.056C682.833,406.884 685.246,506.982 675.869,564.728C649.334,728.131 560.276,1383.41 560.276,1383.41C560.276,1383.41 774.168,1207.29 947.997,1046.39C1022.75,977.199 1073.94,870.002 1074.8,793.021C1076.05,680.607 1033.9,596.95 976.727,595.033C921.86,593.193 764.901,674.675 764.901,674.675C764.901,674.675 971.057,408.677 1122.69,408.378Z" style="stroke:black;stroke-width:1px;"/>
</svg>
