<?xml version="1.0" encoding="UTF-8" standalone="no"?>
<!DOCTYPE svg PUBLIC "-//W3C//DTD SVG 1.1//EN" "http://www.w3.org/Graphics/SVG/1.1/DTD/svg11.dtd">
<svg width="100%" height="100%" viewBox="0 0 2048 2048" version="1.1" xmlns="http://www.w3.org/2000/svg" xmlns:xlink="http://www.w3.org/1999/xlink" xml:space="preserve" xmlns:serif="http://www.serif.com/" style="fill-rule:evenodd;clip-rule:evenodd;stroke-linecap:round;stroke-linejoin:round;stroke-miterlimit:1.5;">
    <path d="M679.813,96.958C679.813,96.958 595.172,216.116 595.781,288.583C596.463,369.692 642.009,415.372 696.219,416.542C803.099,418.847 1052.81,301.653 1237.06,302.417C1801.75,304.758 1902.97,798.773 1892.03,1055.25C1868.2,1613.92 1480.97,1864.62 1102.16,1868.21C645.099,1872.54 479.219,1686.67 479.219,1686.67L665.188,1483.12C665.188,1483.12 943.644,1715.21 1155.12,1711.08C1526.57,1703.83 1554.68,1295.26 1553.25,1085.88C1551.82,876.493 1485.26,478.353 1146.53,454.792C970.942,442.578 726.979,655.493 590.563,651.667C476.468,648.466 326.249,581.942 328.031,431.833C329.712,290.3 679.813,96.958 679.813,96.958Z" style="stroke:black;stroke-width:1px;"/>
    <path d="M722.231,955.765L1616.96,959.893L1611.68,1139.56L557.764,1139.83L722.231,955.765Z" style="stroke:black;stroke-width:1px;"/>
</svg>
