<?xml version="1.0" encoding="UTF-8" standalone="no"?>
<!DOCTYPE svg PUBLIC "-//W3C//DTD SVG 1.1//EN" "http://www.w3.org/Graphics/SVG/1.1/DTD/svg11.dtd">
<svg width="100%" height="100%" viewBox="0 0 2048 2048" version="1.1" xmlns="http://www.w3.org/2000/svg" xmlns:xlink="http://www.w3.org/1999/xlink" xml:space="preserve" xmlns:serif="http://www.serif.com/" style="fill-rule:evenodd;clip-rule:evenodd;stroke-linecap:round;stroke-linejoin:round;stroke-miterlimit:1.5;">
    <path d="M840.094,561.792C840.094,561.792 1112.81,254.912 1288.62,254.589C1470.31,254.255 1833.59,595.883 1826.9,931.08C1819.69,1292.63 1416.67,1825.95 970.313,1819.21C696.039,1815.07 259.831,1548.89 256.656,1342.17C253.161,1114.59 558.5,803.5 562.848,663.288C564.407,613.008 566.589,559.63 566.589,559.63L340.062,551.667C340.062,551.667 486.097,258.675 620.969,260.417C741.97,261.979 802.315,358.373 799.938,452.875C793.87,694.066 552.703,927.059 551.063,1168.92C549.658,1376.03 659.477,1698.17 977.469,1683.58C1324.14,1667.68 1533.12,1205.65 1529.9,998.916C1524.42,647.556 1249.95,515.374 1121.43,514.136C1005.07,513.015 840.094,561.792 840.094,561.792Z" style="stroke:black;stroke-width:1px;"/>
    <path d="M1127.19,467.667L1133.69,1699.54L897.813,1702.96L840.268,562.463L1127.19,467.667Z" style="stroke:black;stroke-width:1px;"/>
</svg>
