<?xml version="1.0" encoding="UTF-8" standalone="no"?>
<!DOCTYPE svg PUBLIC "-//W3C//DTD SVG 1.1//EN" "http://www.w3.org/Graphics/SVG/1.1/DTD/svg11.dtd">
<svg width="100%" height="100%" viewBox="0 0 2048 2048" version="1.1" xmlns="http://www.w3.org/2000/svg" xmlns:xlink="http://www.w3.org/1999/xlink" xml:space="preserve" xmlns:serif="http://www.serif.com/" style="fill-rule:evenodd;clip-rule:evenodd;stroke-linecap:round;stroke-linejoin:round;stroke-miterlimit:1.5;">
    <path d="M1100.95,334.964C1226.95,336.893 1437.55,441.508 1441.59,580.712C1445.86,727.525 1219.19,832.28 1219.19,832.28C1219.19,832.28 1215.94,1270.31 1216.09,1391.96C1216.16,1448.32 1284.49,1506.05 1339.69,1507.36C1411.73,1509.07 1571.12,1433.79 1571.12,1433.79C1571.12,1433.79 1433.97,1604.87 1322.09,1609.33C1237.41,1612.72 1061.67,1470.98 1061.3,1366.78C1060.82,1232.89 1062.47,825.708 1062.47,825.708L1000.06,817.875L1083.43,739.07C1083.43,739.07 1237.15,705.666 1237.03,589.192C1236.97,528.418 1197.8,439.963 1065.51,439.389C880.043,438.586 808.422,671.255 808.422,671.255L787.879,508.32C787.879,508.32 987.838,333.232 1100.95,334.964Z" style="stroke:black;stroke-width:1px;"/>
    <path d="M835.254,326.123L832.281,1084.92L662.725,1165.3L660.469,558.208L543.906,503.5L731.599,326.463L835.254,326.123Z" style="stroke:black;stroke-width:1px;"/>
</svg>
