<?xml version="1.0" encoding="UTF-8" standalone="no"?>
<!DOCTYPE svg PUBLIC "-//W3C//DTD SVG 1.1//EN" "http://www.w3.org/Graphics/SVG/1.1/DTD/svg11.dtd">
<svg width="100%" height="100%" viewBox="0 0 2048 2048" version="1.1" xmlns="http://www.w3.org/2000/svg" xmlns:xlink="http://www.w3.org/1999/xlink" xml:space="preserve" xmlns:serif="http://www.serif.com/" style="fill-rule:evenodd;clip-rule:evenodd;stroke-linecap:round;stroke-linejoin:round;stroke-miterlimit:1.5;">
    <path d="M1263.98,375.53C1420.1,376.385 1533.22,523.15 1536.21,616.428C1539.3,713.158 1407.94,895.353 1378.84,836.1C1351.08,779.577 1432.62,511.797 1172.69,513.417C1102.58,513.853 1040.31,579.641 1004.78,640.083C918.125,787.527 660.745,1209.35 591.219,1343.29C575.782,1373.03 574.307,1456.48 574.307,1456.48L1445.62,1454.5L1367.81,1570.7L418.54,1570.65L496.778,1487.95C496.778,1487.95 497.922,1378.83 518.964,1342.9C609.793,1187.81 879.669,731.916 983.313,558.208C1044.31,455.975 1154.24,374.929 1263.98,375.53Z" style="stroke:black;stroke-width:1px;"/>
</svg>
