<?xml version="1.0" encoding="UTF-8" standalone="no"?>
<!DOCTYPE svg PUBLIC "-//W3C//DTD SVG 1.1//EN" "http://www.w3.org/Graphics/SVG/1.1/DTD/svg11.dtd">
<svg width="100%" height="100%" viewBox="0 0 2048 2048" version="1.1" xmlns="http://www.w3.org/2000/svg" xmlns:xlink="http://www.w3.org/1999/xlink" xml:space="preserve" xmlns:serif="http://www.serif.com/" style="fill-rule:evenodd;clip-rule:evenodd;stroke-linecap:round;stroke-linejoin:round;stroke-miterlimit:1.5;">
    <path d="M972.75,321.292C1037.09,322.42 1092.43,369.92 1124.25,421.417C1235.06,600.78 1687.75,1264.52 1657.11,1361.68C1636.64,1426.6 1538.2,1499.83 1476.98,1500.03C1325.5,1500.54 683.063,1499.92 683.063,1499.92L769.719,1389.71L1482.2,1387.76C1482.2,1387.76 1487.32,1329.44 1474.49,1306.5C1397.38,1168.61 1111.59,705.187 1021.7,557.56C992.972,510.381 918.776,461.98 874.2,460.536C823.046,458.879 751.014,547.059 748.797,605.948C746.743,660.536 800.896,738.624 799.169,791.986C797.415,846.176 720.249,929.996 687.132,929.758C654.397,929.523 606.156,832.533 606.211,722.686C606.272,600.051 867.825,319.451 972.75,321.292Z" style="stroke:black;stroke-width:1px;"/>
</svg>
