<?xml version="1.0" encoding="UTF-8" standalone="no"?>
<!DOCTYPE svg PUBLIC "-//W3C//DTD SVG 1.1//EN" "http://www.w3.org/Graphics/SVG/1.1/DTD/svg11.dtd">
<svg width="100%" height="100%" viewBox="0 0 2048 2048" version="1.1" xmlns="http://www.w3.org/2000/svg" xmlns:xlink="http://www.w3.org/1999/xlink" xml:space="preserve" xmlns:serif="http://www.serif.com/" style="fill-rule:evenodd;clip-rule:evenodd;stroke-linecap:round;stroke-linejoin:round;stroke-miterlimit:1.5;">
    <path d="M1218.35,241.522L1256.15,1453.58L1104.67,1572.25L1032.56,1384.81L1028.23,507.301L840.943,438.268L1072.55,241.396L1218.35,241.522Z" style="stroke:black;stroke-width:1px;"/>
    <path d="M1038.6,1396.7L1104.67,1572.25C1104.67,1572.25 883.798,1575.81 772.888,1573.74C667.689,1571.77 526.526,1406.26 528.028,1283.42C533.208,859.826 1134.29,657.772 1325.93,660.429C1426.95,661.829 1557.58,716.648 1559.12,774.238C1560.2,814.56 1458.29,889.598 1408.67,887.585C1356.51,885.469 1287.46,806.955 1229.82,808.262C1108.85,811.006 762.307,961.06 754.789,1203.07C751.967,1293.89 861.929,1419.94 917.216,1421.99C992.463,1424.78 1038.6,1396.7 1038.6,1396.7Z" style="stroke:black;stroke-width:1px;"/>
</svg>
