<?xml version="1.0" encoding="UTF-8" standalone="no"?>
<!DOCTYPE svg PUBLIC "-//W3C//DTD SVG 1.1//EN" "http://www.w3.org/Graphics/SVG/1.1/DTD/svg11.dtd">
<svg width="100%" height="100%" viewBox="0 0 2048 2048" version="1.1" xmlns="http://www.w3.org/2000/svg" xmlns:xlink="http://www.w3.org/1999/xlink" xml:space="preserve" xmlns:serif="http://www.serif.com/" style="fill-rule:evenodd;clip-rule:evenodd;stroke-linecap:round;stroke-linejoin:round;stroke-miterlimit:1.5;">
    <g transform="matrix(1,0,0,1,30.2927,-135.273)">
        <path d="M1030.02,466.674C1228.29,464.327 1416.22,594.272 1461.43,652.778C1497.04,698.84 1410.25,777.607 1341.03,778.476C1262.61,779.462 1227.95,525.288 1022.88,525.248C943.983,525.233 859.571,601.474 857,722.958C853.902,869.336 858.427,1181.44 857.435,1336.84C855.51,1638.55 410.086,1727.71 410.086,1727.71C410.086,1727.71 671.997,1506.6 670.99,1434.06C668.896,1283.21 664.685,970.694 668.655,798.764C672.272,642.163 814.798,469.222 1030.02,466.674Z" style="stroke:black;stroke-width:1px;"/>
    </g>
    <g transform="matrix(1,0,0,1,-21.6655,43.8393)">
        <path d="M1147.46,722.093C1178.94,700.293 1257.36,693.618 1260.99,725.609C1265.7,767.194 1184.76,848.744 1117.97,904.344C1002.23,1000.7 853.634,972.914 853.634,972.914C853.634,972.914 976.572,909.96 1040.32,854.362C1097.88,804.167 1111.81,746.781 1147.46,722.093Z" style="stroke:black;stroke-width:1px;"/>
    </g>
    <g transform="matrix(1,0,0,1,-13.8934,368.455)">
        <path d="M1147.46,722.093C1178.94,700.293 1257.36,693.618 1260.99,725.609C1265.7,767.194 1184.76,848.744 1117.97,904.344C1002.23,1000.7 827.397,976.244 827.397,976.244C827.397,976.244 976.572,909.96 1040.32,854.362C1097.88,804.167 1111.81,746.781 1147.46,722.093Z" style="stroke:black;stroke-width:1px;"/>
    </g>
</svg>
