<?xml version="1.0" encoding="UTF-8" standalone="no"?>
<!DOCTYPE svg PUBLIC "-//W3C//DTD SVG 1.1//EN" "http://www.w3.org/Graphics/SVG/1.1/DTD/svg11.dtd">
<svg width="100%" height="100%" viewBox="0 0 2048 2048" version="1.1" xmlns="http://www.w3.org/2000/svg" xmlns:xlink="http://www.w3.org/1999/xlink" xml:space="preserve" xmlns:serif="http://www.serif.com/" style="fill-rule:evenodd;clip-rule:evenodd;stroke-linecap:round;stroke-linejoin:round;stroke-miterlimit:1.5;">
    <path d="M644.219,231.917L744.5,235.167L784.344,277.333L781.906,1676.08L554.854,1800.71L556.341,533.54L364.281,448.125L644.219,231.917Z" style="stroke:black;stroke-width:1px;"/>
    <path d="M1203.09,309.417C1195.16,273.936 1399.9,241.455 1465.47,242.5C1528.62,243.507 1584.06,333.137 1584.47,406.125C1584.91,484.404 1390.03,675.583 1390.03,675.583C1390.03,675.583 1740.56,696.77 1740.5,1033.12C1740.42,1538.84 1081.97,1836.62 1081.97,1836.62C1081.97,1836.62 1446.78,1431.16 1433.59,1105.25C1428.01,967.301 1237.98,833.881 1115.37,827.882C993.982,821.944 636.617,1100.33 636.617,1100.33C636.617,1100.33 853.559,821.324 979.262,736.5C1084.86,665.244 1290.52,525.958 1285.53,415.739C1283.13,362.564 1212.17,350.044 1203.09,309.417Z" style="stroke:black;stroke-width:1px;"/>
</svg>
