<?xml version="1.0" encoding="UTF-8" standalone="no"?>
<!DOCTYPE svg PUBLIC "-//W3C//DTD SVG 1.1//EN" "http://www.w3.org/Graphics/SVG/1.1/DTD/svg11.dtd">
<svg width="100%" height="100%" viewBox="0 0 2048 2048" version="1.1" xmlns="http://www.w3.org/2000/svg" xmlns:xlink="http://www.w3.org/1999/xlink" xml:space="preserve" xmlns:serif="http://www.serif.com/" style="fill-rule:evenodd;clip-rule:evenodd;stroke-linecap:round;stroke-linejoin:round;stroke-miterlimit:1.5;">
    <path d="M1483.66,462.125C1601.02,462.984 1741.06,467.146 1741.16,558.833C1741.52,911.971 650.147,1249.6 640.427,1576.08C639.19,1617.63 762.925,1664.68 762.925,1664.68C762.925,1664.68 634.085,1722.52 536.702,1724.17C445.529,1725.7 295.236,1717.43 294.719,1631C292.343,1234.19 1374.6,828.75 1376.06,644.667C1376.76,556.546 1280.78,529.708 1280.78,529.708C1280.78,529.708 1412.38,461.603 1483.66,462.125Z" style="stroke:black;stroke-width:1px;"/>
    <path d="M693.413,402.153C877.391,402.221 1064.07,656.179 1189.01,933.797C1320.24,1225.38 1452.25,1485.78 1542.71,1490.53C1627.1,1494.96 1786.65,1392.4 1786.65,1392.4C1786.65,1392.4 1602.72,1722.93 1443.59,1723.56C1118.3,1724.83 961.763,1420.84 858.253,1138.45C770.717,899.642 687.459,698.339 509.733,699.53C424.686,700.1 278.763,807.942 278.763,807.942C278.763,807.942 352.616,402.027 693.413,402.153Z" style="stroke:black;stroke-width:1px;"/>
</svg>
