<?xml version="1.0" encoding="UTF-8" standalone="no"?>
<!DOCTYPE svg PUBLIC "-//W3C//DTD SVG 1.1//EN" "http://www.w3.org/Graphics/SVG/1.1/DTD/svg11.dtd">
<svg width="100%" height="100%" viewBox="0 0 2048 2048" version="1.1" xmlns="http://www.w3.org/2000/svg" xmlns:xlink="http://www.w3.org/1999/xlink" xml:space="preserve" xmlns:serif="http://www.serif.com/" style="fill-rule:evenodd;clip-rule:evenodd;stroke-linecap:round;stroke-linejoin:round;stroke-miterlimit:1.5;">
    <path d="M1161.31,367.208C1361.47,368.221 1579.86,630.264 1576.16,928.75C1570.49,1385.38 1222.04,1545.65 1063.05,1539.72C865.782,1532.36 633.916,1395.26 623.719,1000.88C618.63,804.042 858.017,365.675 1161.31,367.208ZM1006.01,545.302C1220.52,544.371 1437.11,767.085 1433.75,1075.29C1429.88,1430.85 1266.04,1407.77 1157.91,1404.5C917.653,1397.24 758.248,1176.87 757.844,978.583C757.287,705.805 800.6,546.194 1006.01,545.302Z" style="stroke:black;stroke-width:1px;"/>
    <path d="M1048.12,952.882C1067.09,928.045 1164.24,920.289 1183.59,939.333C1202.95,958.378 1193.69,1026.66 1168.21,1056.85C1115.96,1118.76 870.13,1310.79 870.13,1310.79L831,1288.42C831,1288.42 979.135,1124.03 1016.06,1069.09C1032.6,1044.49 1030.24,976.296 1048.12,952.882Z" style="stroke:black;stroke-width:1px;"/>
</svg>
