<?xml version="1.0" encoding="UTF-8" standalone="no"?>
<!DOCTYPE svg PUBLIC "-//W3C//DTD SVG 1.1//EN" "http://www.w3.org/Graphics/SVG/1.1/DTD/svg11.dtd">
<svg width="100%" height="100%" viewBox="0 0 2048 2048" version="1.1" xmlns="http://www.w3.org/2000/svg" xmlns:xlink="http://www.w3.org/1999/xlink" xml:space="preserve" xmlns:serif="http://www.serif.com/" style="fill-rule:evenodd;clip-rule:evenodd;stroke-linecap:round;stroke-linejoin:round;stroke-miterlimit:1.5;">
    <path d="M1059.43,391.377C1170.13,388.53 1378.06,515.801 1376.86,660.531C1375.3,848.665 1373.73,1242.96 1380.05,1394.54C1383.16,1469.1 1575.74,1550.96 1575.74,1550.96C1575.74,1550.96 1188.62,1512.64 1189.38,1371.11C1190.23,1212.54 1193.71,832.31 1193.1,684.392C1192.72,592.249 1045.49,526.045 960.069,521.692C877.976,517.509 708.25,579.667 708.25,579.667C708.25,579.667 948.729,394.224 1059.43,391.377Z" style="stroke:black;stroke-width:1px;"/>
    <path d="M613.813,1438.21C638.414,1363.18 763.462,1215.75 869.451,1128.27C975.441,1040.78 1265.31,890.996 1265.31,890.996C1265.31,890.996 1010.49,1138.08 939.594,1219.71C898.199,1267.37 842.026,1340.78 839.938,1380.75C837.894,1419.85 926.197,1442.15 927.666,1469.25C929.358,1500.47 809.791,1521.22 757.688,1522.04C705.13,1522.87 596.518,1490.95 613.813,1438.21Z" style="stroke:black;stroke-width:1px;"/>
</svg>
