<?xml version="1.0" encoding="UTF-8" standalone="no"?>
<!DOCTYPE svg PUBLIC "-//W3C//DTD SVG 1.1//EN" "http://www.w3.org/Graphics/SVG/1.1/DTD/svg11.dtd">
<svg width="100%" height="100%" viewBox="0 0 2048 2048" version="1.1" xmlns="http://www.w3.org/2000/svg" xmlns:xlink="http://www.w3.org/1999/xlink" xml:space="preserve" xmlns:serif="http://www.serif.com/" style="fill-rule:evenodd;clip-rule:evenodd;stroke-linecap:round;stroke-linejoin:round;stroke-miterlimit:1.5;">
    <path d="M869.188,303.375C869.188,303.375 932.003,412.948 953.22,450.1C987.308,509.789 1189.87,297.61 1281.59,299.333C1369.49,300.985 1506.47,433.211 1506.44,543.375C1506.3,976.796 1134.16,998.792 1134.16,998.792C1134.16,998.792 1137.49,1067.27 1138.64,1117.7C1140.58,1202.74 990.37,1389.31 886.847,1460.71C756.073,1550.91 647.781,1511.62 647.781,1511.62L912.243,1211.72C912.243,1211.72 904.976,994.93 907.784,926.289C909.733,878.655 961.191,829.885 1032.51,812.125C1141.7,784.936 1261.44,723.895 1260.97,632.458C1260.74,587.51 1211.93,535.786 1167.91,534.301C1136.29,533.234 1073.64,587.075 1014.18,627.617C963.155,662.402 912.094,684.708 912.094,684.708L825.938,949.458L676.563,1030.83L717.031,610.292L596.25,502.167L869.188,303.375Z" style="stroke:black;stroke-width:1px;"/>
</svg>
