<?xml version="1.0" encoding="UTF-8" standalone="no"?>
<!DOCTYPE svg PUBLIC "-//W3C//DTD SVG 1.1//EN" "http://www.w3.org/Graphics/SVG/1.1/DTD/svg11.dtd">
<svg width="100%" height="100%" viewBox="0 0 2048 2048" version="1.1" xmlns="http://www.w3.org/2000/svg" xmlns:xlink="http://www.w3.org/1999/xlink" xml:space="preserve" xmlns:serif="http://www.serif.com/" style="fill-rule:evenodd;clip-rule:evenodd;stroke-linecap:round;stroke-linejoin:round;stroke-miterlimit:1.5;">
    <path d="M747.615,510.82C1061.28,511.672 1204.81,1318.37 1407.75,1322.62C1463.43,1323.79 1554.72,1285.67 1554.72,1285.67C1512.86,1326.69 1506.61,1512.84 1332.66,1513.25C982.929,1514.08 949.98,732.844 652.5,736C593.912,736.621 482.312,779.958 482.312,779.958C482.312,779.958 633.876,510.512 747.615,510.82Z" style="stroke:black;stroke-width:1px;"/>
    <path d="M1245.69,594.4C1241.17,545.496 1584.09,521.108 1586.41,632.917C1592.96,949.258 793.002,1052.66 786.938,1380.58C786.442,1407.36 831.642,1420.55 831.656,1447.33C831.704,1535.33 480.809,1541.29 482.125,1424.54C485.432,1131.05 1290.18,957.776 1288.24,699.128C1287.54,605.52 1249.64,637.255 1245.69,594.4Z" style="stroke:black;stroke-width:1px;"/>
</svg>
