<?xml version="1.0" encoding="UTF-8" standalone="no"?>
<!DOCTYPE svg PUBLIC "-//W3C//DTD SVG 1.1//EN" "http://www.w3.org/Graphics/SVG/1.1/DTD/svg11.dtd">
<svg width="100%" height="100%" viewBox="0 0 2048 2048" version="1.1" xmlns="http://www.w3.org/2000/svg" xmlns:xlink="http://www.w3.org/1999/xlink" xml:space="preserve" xmlns:serif="http://www.serif.com/" style="fill-rule:evenodd;clip-rule:evenodd;stroke-linecap:round;stroke-linejoin:round;stroke-miterlimit:1.5;">
    <path d="M641.938,362.833L818.756,364.972L817.487,571.504C817.487,571.504 1064.03,363.252 1274.12,363.625C1470.37,363.974 1660.64,431.438 1660.02,710.412C1658.91,1215.68 1153.17,1160.72 1153.17,1160.72C1153.17,1160.72 1099.24,1417.81 1051.25,1553C930.924,1891.95 528.969,1844.08 528.969,1844.08C528.969,1844.08 768.092,1663.14 794.75,1537.83C822.388,1407.92 816.316,1243.2 821.344,1137.59C825.242,1055.7 887,984.599 1012.54,982.885C1101.72,981.667 1109.78,1016.71 1224.57,1019.42C1267.66,1020.43 1359.54,981.674 1355.91,838.417C1354.08,766.271 1334.18,593.946 1116.93,588.883C942.324,584.813 788.487,870.492 782.812,964.334C769.884,1178.15 446.062,1240.88 446.062,1240.88L517.512,631.269L401.5,627.208L641.938,362.833Z" style="stroke:black;stroke-width:1px;"/>
</svg>
