<?xml version="1.0" encoding="UTF-8" standalone="no"?>
<!DOCTYPE svg PUBLIC "-//W3C//DTD SVG 1.1//EN" "http://www.w3.org/Graphics/SVG/1.1/DTD/svg11.dtd">
<svg width="100%" height="100%" viewBox="0 0 2048 2048" version="1.1" xmlns="http://www.w3.org/2000/svg" xmlns:xlink="http://www.w3.org/1999/xlink" xml:space="preserve" xmlns:serif="http://www.serif.com/" style="fill-rule:evenodd;clip-rule:evenodd;stroke-linecap:round;stroke-linejoin:round;stroke-miterlimit:1.5;">
    <path d="M1423.03,339.875C1698.41,345.397 1713.11,504.207 1711.59,655.875C1710.38,777.228 1636.64,986.633 1492.08,1078.39C1239.77,1238.53 389.656,1754.08 389.656,1754.08L454.812,453.5L607.908,341.103L751.395,340.411L565.701,1496.42C565.701,1496.42 999.331,1246.07 1159.75,1148.09C1286.48,1070.68 1403.69,910.906 1407.09,790.042C1410.41,672.231 1311.78,599.435 1226.04,602.288C1128.27,605.542 827.563,883.167 827.563,883.167C827.563,883.167 1023.73,331.868 1423.03,339.875Z" style="stroke:black;stroke-width:1px;"/>
</svg>
