<?xml version="1.0" encoding="UTF-8" standalone="no"?>
<!DOCTYPE svg PUBLIC "-//W3C//DTD SVG 1.1//EN" "http://www.w3.org/Graphics/SVG/1.1/DTD/svg11.dtd">
<svg width="100%" height="100%" viewBox="0 0 2048 2048" version="1.1" xmlns="http://www.w3.org/2000/svg" xmlns:xlink="http://www.w3.org/1999/xlink" xml:space="preserve" xmlns:serif="http://www.serif.com/" style="fill-rule:evenodd;clip-rule:evenodd;stroke-linecap:round;stroke-linejoin:round;stroke-miterlimit:1.5;">
    <path d="M687.567,1134.23C687.567,1134.23 1157.16,828.335 1320.93,830.863C1546.16,834.341 1659.52,1146.22 1652.21,1313.33C1640.2,1587.56 1336.21,1826.18 1112.21,1830.43C933.147,1833.82 791.797,1636.16 697.214,1636.27C647.461,1636.33 623.828,1507.89 623.828,1507.89L698.95,1326.17C811.065,1419.13 994.214,1644.27 1159.23,1636.94C1287.96,1631.23 1343.97,1462.79 1343.35,1348.88C1342.83,1254.78 1239.79,1073.07 1129.85,1073.09C1019.63,1073.12 664.718,1331.48 664.718,1331.48L687.567,1134.23Z" style="stroke:black;stroke-width:1px;"/>
    <path d="M747.65,642.642C747.65,642.642 1220.15,266.485 1420.05,264.81C1696.39,262.494 1724.63,399.84 1724.64,466.076C1724.64,533.741 1629.83,642.317 1557.03,644.058C1483.16,645.824 1387.5,528.764 1285.94,529.773C1071.32,531.905 731.863,801.878 731.863,801.878L747.65,642.642Z" style="stroke:black;stroke-width:1px;"/>
    <path d="M828.077,300.939C842.653,301.373 844.578,344.257 839.304,360.179C829.551,389.615 797.718,430.217 793.84,470.098C773.552,678.748 696.518,1634.35 696.518,1634.35C696.518,1634.35 599.095,1634.36 568.094,1660C511.638,1706.68 357.781,1914.46 357.781,1914.46C357.781,1914.46 462.542,1258.53 489.281,1014.71C509.773,827.859 495.645,670.845 504.124,544.599C510.137,455.071 643.981,298.256 703.822,297.896C764.206,297.533 803.236,300.199 828.077,300.939Z" style="stroke:black;stroke-width:1px;"/>
</svg>
