<?xml version="1.0" encoding="UTF-8" standalone="no"?>
<!DOCTYPE svg PUBLIC "-//W3C//DTD SVG 1.1//EN" "http://www.w3.org/Graphics/SVG/1.1/DTD/svg11.dtd">
<svg width="100%" height="100%" viewBox="0 0 2048 2048" version="1.1" xmlns="http://www.w3.org/2000/svg" xmlns:xlink="http://www.w3.org/1999/xlink" xml:space="preserve" xmlns:serif="http://www.serif.com/" style="fill-rule:evenodd;clip-rule:evenodd;stroke-linecap:round;stroke-linejoin:round;stroke-miterlimit:1.5;">
    <path d="M769.002,191.453L909.374,332.272C909.374,332.272 937.531,332.175 991.385,331.948C1090.91,331.529 1134.52,218.342 1341.83,215.681C1580.95,212.611 1775.33,477.81 1777.17,586.697C1780.37,776.245 1323.26,988.275 1323.26,988.275L1244.22,1526.12L1619.74,1430.27L1160.51,1705.01L960.43,1705.24L1045.87,872.412L1149.55,865.814L1250.89,760.73C1250.89,760.73 1438.68,766.459 1440.09,588.458C1440.77,503.131 1331.95,374.718 1235.86,378.727C1167.4,381.583 1120.7,450.41 1057.48,489.91C964.181,548.204 864.305,577.303 864.305,577.303C864.305,577.303 745.445,1350.69 713.581,1563.74C696.967,1674.82 532.461,1833.95 479.51,1832.09C462.825,1831.5 398.703,1795.86 402.376,1763.41C431.033,1510.22 593.74,451.504 593.74,451.504L438.006,450.309L769.002,191.453Z" style="stroke:black;stroke-width:1px;"/>
</svg>
