<?xml version="1.0" encoding="UTF-8" standalone="no"?>
<!DOCTYPE svg PUBLIC "-//W3C//DTD SVG 1.1//EN" "http://www.w3.org/Graphics/SVG/1.1/DTD/svg11.dtd">
<svg width="100%" height="100%" viewBox="0 0 2048 2048" version="1.1" xmlns="http://www.w3.org/2000/svg" xmlns:xlink="http://www.w3.org/1999/xlink" xml:space="preserve" xmlns:serif="http://www.serif.com/" style="fill-rule:evenodd;clip-rule:evenodd;stroke-linecap:round;stroke-linejoin:round;stroke-miterlimit:1.5;">
    <path d="M770.64,226.415L759.645,1289.87L786.709,1291.63L787.627,1444.44L593.67,1556.46L595.395,498.101L447.153,434.698L686.214,225.297L770.64,226.415Z" style="stroke:black;stroke-width:1px;"/>
    <path d="M1260.99,646.396C1281.26,647.065 1322.01,672.134 1322.69,700.988C1324.11,761.189 1176.63,894.239 1076.26,956.911C935.29,1044.94 718.394,1129.7 718.394,1129.7C718.394,1129.7 674.257,1070.31 718.663,1038.44C786.116,990.036 904.356,956.331 959.037,913.026C1017.71,866.562 1101.75,790.407 1101.82,759.102C1101.88,728.121 1021.88,707.61 1021.88,707.61C1021.88,707.61 1174.14,689.407 1216.41,683.269C1229.76,681.33 1247.5,645.951 1260.99,646.396Z" style="stroke:black;stroke-width:1px;"/>
    <path d="M1096.14,888.257C1096.14,888.257 1466.1,1023.2 1465.84,1161.54C1465.23,1492.65 1007.06,1544.72 1007.06,1544.72C1007.06,1544.72 1229.93,1374.54 1227.99,1225.16C1226.09,1078.42 1025.95,949.727 1025.95,949.727L1096.14,888.257Z" style="stroke:black;stroke-width:1px;"/>
</svg>
