<?xml version="1.0" encoding="UTF-8" standalone="no"?>
<!DOCTYPE svg PUBLIC "-//W3C//DTD SVG 1.1//EN" "http://www.w3.org/Graphics/SVG/1.1/DTD/svg11.dtd">
<svg width="100%" height="100%" viewBox="0 0 2048 2048" version="1.1" xmlns="http://www.w3.org/2000/svg" xmlns:xlink="http://www.w3.org/1999/xlink" xml:space="preserve" xmlns:serif="http://www.serif.com/" style="fill-rule:evenodd;clip-rule:evenodd;stroke-linecap:round;stroke-linejoin:round;stroke-miterlimit:1.5;">
    <path d="M535.022,563.158L535.426,494.037L815.043,291.611L884.969,291.5L886.907,451.463L851.088,452.332C851.088,452.332 772.967,1022.92 773.281,1207.83C773.566,1375.35 780.305,1597.85 1109.13,1595.2C1241.86,1594.13 1577.62,1409.38 1577.62,1409.38C1577.62,1409.38 1430.41,1789.88 1010.47,1784.83C602.192,1779.93 508.702,1622.32 503.594,1412.79C498.524,1204.85 657.764,562.167 657.764,562.167L535.022,563.158Z" style="stroke:black;stroke-width:1px;"/>
    <path d="M735.358,942.262L1588.15,945.743L1496.03,1096.79L730.631,1098.91L735.358,942.262Z" style="stroke:black;stroke-width:1px;"/>
</svg>
