<?xml version="1.0" encoding="UTF-8" standalone="no"?>
<!DOCTYPE svg PUBLIC "-//W3C//DTD SVG 1.1//EN" "http://www.w3.org/Graphics/SVG/1.1/DTD/svg11.dtd">
<svg width="100%" height="100%" viewBox="0 0 2048 2048" version="1.1" xmlns="http://www.w3.org/2000/svg" xmlns:xlink="http://www.w3.org/1999/xlink" xml:space="preserve" xmlns:serif="http://www.serif.com/" style="fill-rule:evenodd;clip-rule:evenodd;stroke-linecap:round;stroke-linejoin:round;stroke-miterlimit:1.5;">
    <path d="M1043.89,410.424C1279.95,409.468 1433.81,531.188 1436.03,740.208C1442.2,1320.36 1155.15,1379.02 1155.15,1379.02C1155.15,1379.02 1228.79,1006.81 1227.55,854.487C1226.51,727.809 1208.6,522.455 1037.12,520.75C746.918,517.865 717.873,911.989 738.99,917.944C780.866,929.752 801.376,867.862 848.648,866.722C903.116,865.409 934.967,956.311 934.531,1012.79C933.739,1115.55 885.751,1395.02 818.313,1495.83C710.691,1656.71 547.62,1634.12 547.62,1634.12C547.62,1634.12 652.756,1543.95 718.363,1420.08C788.65,1287.37 775.275,1100.51 775.275,1100.51C775.275,1100.51 543.039,1165.22 551.375,891.167C558.01,673.063 815.554,411.35 1043.89,410.424Z" style="stroke:black;stroke-width:1px;"/>
</svg>
