<?xml version="1.0" encoding="UTF-8" standalone="no"?>
<!DOCTYPE svg PUBLIC "-//W3C//DTD SVG 1.1//EN" "http://www.w3.org/Graphics/SVG/1.1/DTD/svg11.dtd">
<svg width="100%" height="100%" viewBox="0 0 2048 2048" version="1.1" xmlns="http://www.w3.org/2000/svg" xmlns:xlink="http://www.w3.org/1999/xlink" xml:space="preserve" xmlns:serif="http://www.serif.com/" style="fill-rule:evenodd;clip-rule:evenodd;stroke-linecap:round;stroke-linejoin:round;stroke-miterlimit:1.5;">
    <path d="M1440.91,461.792C1561.7,461.713 1759.5,637.047 1727.34,777.833C1570.49,1464.54 1098.1,1416.94 1098.1,1416.94C1098.1,1416.94 1456.24,1103.62 1458.16,866.417C1458.82,783.611 1452.86,676.466 1295.09,679C1155.02,681.25 1111.93,952.121 1113.15,1078.16C1114.6,1228.29 1115.09,1447.08 984.938,1450.92C880.465,1454 501.448,1425.62 503.594,1162.08C505.666,907.591 702.258,781.935 736.719,684.708C769.352,592.636 614.536,582.512 615.745,536.156C617.005,487.796 717.354,420.246 806.03,419.541C881.111,418.944 986.636,458.412 975.937,534.246C951.129,710.088 651.341,863.29 659.156,1104.29C662.064,1193.96 750.983,1310.84 838.947,1310.43C885.265,1310.21 923.353,1101.16 923.813,991.917C924.835,748.643 1265.39,461.906 1440.91,461.792Z" style="stroke:black;stroke-width:1px;"/>
</svg>
