<?xml version="1.0" encoding="UTF-8" standalone="no"?>
<!DOCTYPE svg PUBLIC "-//W3C//DTD SVG 1.1//EN" "http://www.w3.org/Graphics/SVG/1.1/DTD/svg11.dtd">
<svg width="100%" height="100%" viewBox="0 0 2048 2048" version="1.1" xmlns="http://www.w3.org/2000/svg" xmlns:xlink="http://www.w3.org/1999/xlink" xml:space="preserve" xmlns:serif="http://www.serif.com/" style="fill-rule:evenodd;clip-rule:evenodd;stroke-linecap:round;stroke-linejoin:round;stroke-miterlimit:1.5;">
    <path d="M1289.75,278.167C1474.75,288.462 1654.68,331.333 1656.97,389.5C1660.17,470.96 1524.54,511.768 1442.38,510.833C1352.32,509.809 1242.62,428.363 1107.03,428.917C656.573,430.755 496.15,1038.36 501.312,1176.71C517.848,1619.8 838.91,1564.1 838.91,1564.1L881.096,850.862C881.096,850.862 943.294,850.676 1001.68,844.603C1077.7,836.694 1111.89,694.85 1313.78,698.875C1519.92,702.984 1675.35,872.216 1669.95,1095.55C1657.52,1610.24 1029.31,1773.75 1029.31,1773.75C1029.31,1773.75 1405.35,1347.28 1395.16,1162.25C1377.22,836.37 1096,891.29 1096,891.29L1038.41,1649.88L926.563,1763.5L632.188,1765.79C632.188,1765.79 335.024,1513.67 326.25,1277.83C299.347,554.733 986.176,261.274 1289.75,278.167Z" style="stroke:black;stroke-width:1px;"/>
</svg>
