<?xml version="1.0" encoding="UTF-8" standalone="no"?>
<!DOCTYPE svg PUBLIC "-//W3C//DTD SVG 1.1//EN" "http://www.w3.org/Graphics/SVG/1.1/DTD/svg11.dtd">
<svg width="100%" height="100%" viewBox="0 0 2048 2048" version="1.1" xmlns="http://www.w3.org/2000/svg" xmlns:xlink="http://www.w3.org/1999/xlink" xml:space="preserve" xmlns:serif="http://www.serif.com/" style="fill-rule:evenodd;clip-rule:evenodd;stroke-linecap:round;stroke-linejoin:round;stroke-miterlimit:1.5;">
    <path d="M1180.56,1217.42C1180.56,1217.42 968.016,1423.14 862.844,1506.25C768.918,1580.47 663.078,1697.39 547.551,1702.7C468.594,1706.33 380.932,1599.79 379.486,1522.96C377.395,1411.89 554.863,1190.19 649.273,1101.11C905.909,858.973 1211.54,788.283 1327.93,843.826C1378.54,867.98 1372.17,869.898 1372.17,869.898C1372.17,869.898 1662.94,662.724 1690.12,635.042C1708.38,616.448 1589,659.546 1562.94,659.579C1407.39,659.778 767.75,661.083 767.75,661.083C767.75,661.083 1074.1,401.583 1161.62,402.971C1218.54,403.874 1271.58,512.868 1271.58,512.868C1271.58,512.868 1443.59,516.086 1507.16,514.72C1542.6,513.958 1587.73,473.086 1631.28,473.875C1692.46,474.984 1836.31,505.176 1839.11,584.898C1840.16,614.892 1783.71,659.876 1730.37,720.612C1631.04,833.723 1446.82,1019.83 1446.82,1019.83L1413.69,1442.48C1413.69,1442.48 1535.89,1445.28 1578,1443.44C1631.07,1441.12 1776.88,1409.63 1776.88,1409.63L1139.3,1702.05L1180.56,1217.42ZM1054.27,1003.43C1155.62,994.803 1186.31,1063.6 1186.31,1063.6C1186.31,1063.6 1007.17,1239.82 921.02,1306C826.41,1378.68 646.754,1512.53 594.871,1466.86C514.418,1396.05 685.259,1240.05 777.667,1164.04C860.009,1096.32 984.386,1009.38 1054.27,1003.43Z" style="stroke:black;stroke-width:1px;"/>
</svg>
