<?xml version="1.0" encoding="UTF-8" standalone="no"?>
<!DOCTYPE svg PUBLIC "-//W3C//DTD SVG 1.1//EN" "http://www.w3.org/Graphics/SVG/1.1/DTD/svg11.dtd">
<svg width="100%" height="100%" viewBox="0 0 2048 2048" version="1.1" xmlns="http://www.w3.org/2000/svg" xmlns:xlink="http://www.w3.org/1999/xlink" xml:space="preserve" xmlns:serif="http://www.serif.com/" style="fill-rule:evenodd;clip-rule:evenodd;stroke-linecap:round;stroke-linejoin:round;stroke-miterlimit:1.5;">
    <path d="M935.688,828.625L1840.81,831.083L1718.56,1055.58L1329.71,1058.75L1320.47,1018.46L810.5,1015.38L935.688,828.625Z" style="stroke:black;stroke-width:1px;"/>
    <path d="M1460.62,101.708L1457.81,1655.58L1185.51,1818C1185.51,1818 1127.21,1817.87 1076.21,1817.88C1035.25,1817.88 274.305,1604.36 272.876,1203.76C272.331,1050.89 277.227,979.719 277.072,846.295C276.698,523.368 1244.32,102.355 1244.32,102.355L1460.62,101.708ZM1176.44,331.375L1186.34,1549.25C1186.34,1549.25 1133.32,1550.6 1071.96,1547.99C983.644,1544.23 586.507,1303.92 581.625,1129.83C579.451,1052.34 576.736,962.153 576.906,878.292C577.36,654.957 1176.44,331.375 1176.44,331.375Z" style="stroke:black;stroke-width:1px;"/>
</svg>
